<svg width="1363" height="163" viewBox="0 0 1363 163" fill="none" xmlns="http://www.w3.org/2000/svg">
<path d="M0 15C0 6.71573 6.71573 0 15 0H37V163H15C6.71573 163 0 156.284 0 148V15Z" fill="#424242"/>
<rect width="1097" height="163" transform="translate(37)" fill="#F0F0F0"/>
<path d="M101.906 53.9219L94.3945 51.2383V48.0859L104.602 52.375V54.6367L101.906 53.9219ZM94.3945 56.1719L101.918 53.4297L104.602 52.7852V55.0352L94.3945 59.3242V56.1719ZM122.789 55.3398H126.293C126.223 56.4883 125.906 57.5078 125.344 58.3984C124.789 59.2891 124.012 59.9844 123.012 60.4844C122.02 60.9844 120.824 61.2344 119.426 61.2344C118.332 61.2344 117.352 61.0469 116.484 60.6719C115.617 60.2891 114.875 59.7422 114.258 59.0312C113.648 58.3203 113.184 57.4609 112.863 56.4531C112.543 55.4453 112.383 54.3164 112.383 53.0664V51.8828C112.383 50.6328 112.547 49.5039 112.875 48.4961C113.211 47.4805 113.688 46.6172 114.305 45.9062C114.93 45.1953 115.676 44.6484 116.543 44.2656C117.41 43.8828 118.379 43.6914 119.449 43.6914C120.871 43.6914 122.07 43.9492 123.047 44.4648C124.031 44.9805 124.793 45.6914 125.332 46.5977C125.879 47.5039 126.207 48.5352 126.316 49.6914H122.801C122.762 49.0039 122.625 48.4219 122.391 47.9453C122.156 47.4609 121.801 47.0977 121.324 46.8555C120.855 46.6055 120.23 46.4805 119.449 46.4805C118.863 46.4805 118.352 46.5898 117.914 46.8086C117.477 47.0273 117.109 47.3594 116.812 47.8047C116.516 48.25 116.293 48.8125 116.145 49.4922C116.004 50.1641 115.934 50.9531 115.934 51.8594V53.0664C115.934 53.9492 116 54.7266 116.133 55.3984C116.266 56.0625 116.469 56.625 116.742 57.0859C117.023 57.5391 117.383 57.8828 117.82 58.1172C118.266 58.3438 118.801 58.457 119.426 58.457C120.16 58.457 120.766 58.3398 121.242 58.1055C121.719 57.8711 122.082 57.5234 122.332 57.0625C122.59 56.6016 122.742 56.0273 122.789 55.3398ZM127.852 54.7891V54.543C127.852 53.6133 127.984 52.7578 128.25 51.9766C128.516 51.1875 128.902 50.5039 129.41 49.9258C129.918 49.3477 130.543 48.8984 131.285 48.5781C132.027 48.25 132.879 48.0859 133.84 48.0859C134.801 48.0859 135.656 48.25 136.406 48.5781C137.156 48.8984 137.785 49.3477 138.293 49.9258C138.809 50.5039 139.199 51.1875 139.465 51.9766C139.73 52.7578 139.863 53.6133 139.863 54.543V54.7891C139.863 55.7109 139.73 56.5664 139.465 57.3555C139.199 58.1367 138.809 58.8203 138.293 59.4062C137.785 59.9844 137.16 60.4336 136.418 60.7539C135.676 61.0742 134.824 61.2344 133.863 61.2344C132.902 61.2344 132.047 61.0742 131.297 60.7539C130.555 60.4336 129.926 59.9844 129.41 59.4062C128.902 58.8203 128.516 58.1367 128.25 57.3555C127.984 56.5664 127.852 55.7109 127.852 54.7891ZM131.227 54.543V54.7891C131.227 55.3203 131.273 55.8164 131.367 56.2773C131.461 56.7383 131.609 57.1445 131.812 57.4961C132.023 57.8398 132.297 58.1094 132.633 58.3047C132.969 58.5 133.379 58.5977 133.863 58.5977C134.332 58.5977 134.734 58.5 135.07 58.3047C135.406 58.1094 135.676 57.8398 135.879 57.4961C136.082 57.1445 136.23 56.7383 136.324 56.2773C136.426 55.8164 136.477 55.3203 136.477 54.7891V54.543C136.477 54.0273 136.426 53.543 136.324 53.0898C136.23 52.6289 136.078 52.2227 135.867 51.8711C135.664 51.5117 135.395 51.2305 135.059 51.0273C134.723 50.8242 134.316 50.7227 133.84 50.7227C133.363 50.7227 132.957 50.8242 132.621 51.0273C132.293 51.2305 132.023 51.5117 131.812 51.8711C131.609 52.2227 131.461 52.6289 131.367 53.0898C131.273 53.543 131.227 54.0273 131.227 54.543ZM145.312 50.9453V61H141.926V48.3203H145.102L145.312 50.9453ZM144.844 54.2148H143.906C143.906 53.332 144.012 52.5195 144.223 51.7773C144.441 51.0273 144.758 50.3789 145.172 49.832C145.594 49.2773 146.113 48.8477 146.73 48.543C147.348 48.2383 148.062 48.0859 148.875 48.0859C149.438 48.0859 149.953 48.1719 150.422 48.3438C150.891 48.5078 151.293 48.7695 151.629 49.1289C151.973 49.4805 152.238 49.9414 152.426 50.5117C152.613 51.0742 152.707 51.75 152.707 52.5391V61H149.332V52.9141C149.332 52.3359 149.254 51.8906 149.098 51.5781C148.941 51.2656 148.719 51.0469 148.43 50.9219C148.148 50.7969 147.809 50.7344 147.41 50.7344C146.973 50.7344 146.59 50.8242 146.262 51.0039C145.941 51.1836 145.676 51.4336 145.465 51.7539C145.254 52.0664 145.098 52.4336 144.996 52.8555C144.895 53.2773 144.844 53.7305 144.844 54.2148ZM152.391 53.8281L151.184 53.9805C151.184 53.1523 151.285 52.3828 151.488 51.6719C151.699 50.9609 152.008 50.3359 152.414 49.7969C152.828 49.2578 153.34 48.8398 153.949 48.543C154.559 48.2383 155.262 48.0859 156.059 48.0859C156.668 48.0859 157.223 48.1758 157.723 48.3555C158.223 48.5273 158.648 48.8047 159 49.1875C159.359 49.5625 159.633 50.0547 159.82 50.6641C160.016 51.2734 160.113 52.0195 160.113 52.9023V61H156.727V52.9023C156.727 52.3164 156.648 51.8711 156.492 51.5664C156.344 51.2539 156.125 51.0391 155.836 50.9219C155.555 50.7969 155.219 50.7344 154.828 50.7344C154.422 50.7344 154.066 50.8164 153.762 50.9805C153.457 51.1367 153.203 51.3555 153 51.6367C152.797 51.918 152.645 52.2461 152.543 52.6211C152.441 52.9883 152.391 53.3906 152.391 53.8281ZM166.102 50.9453V61H162.715V48.3203H165.891L166.102 50.9453ZM165.633 54.2148H164.695C164.695 53.332 164.801 52.5195 165.012 51.7773C165.23 51.0273 165.547 50.3789 165.961 49.832C166.383 49.2773 166.902 48.8477 167.52 48.543C168.137 48.2383 168.852 48.0859 169.664 48.0859C170.227 48.0859 170.742 48.1719 171.211 48.3438C171.68 48.5078 172.082 48.7695 172.418 49.1289C172.762 49.4805 173.027 49.9414 173.215 50.5117C173.402 51.0742 173.496 51.75 173.496 52.5391V61H170.121V52.9141C170.121 52.3359 170.043 51.8906 169.887 51.5781C169.73 51.2656 169.508 51.0469 169.219 50.9219C168.938 50.7969 168.598 50.7344 168.199 50.7344C167.762 50.7344 167.379 50.8242 167.051 51.0039C166.73 51.1836 166.465 51.4336 166.254 51.7539C166.043 52.0664 165.887 52.4336 165.785 52.8555C165.684 53.2773 165.633 53.7305 165.633 54.2148ZM173.18 53.8281L171.973 53.9805C171.973 53.1523 172.074 52.3828 172.277 51.6719C172.488 50.9609 172.797 50.3359 173.203 49.7969C173.617 49.2578 174.129 48.8398 174.738 48.543C175.348 48.2383 176.051 48.0859 176.848 48.0859C177.457 48.0859 178.012 48.1758 178.512 48.3555C179.012 48.5273 179.438 48.8047 179.789 49.1875C180.148 49.5625 180.422 50.0547 180.609 50.6641C180.805 51.2734 180.902 52.0195 180.902 52.9023V61H177.516V52.9023C177.516 52.3164 177.438 51.8711 177.281 51.5664C177.133 51.2539 176.914 51.0391 176.625 50.9219C176.344 50.7969 176.008 50.7344 175.617 50.7344C175.211 50.7344 174.855 50.8164 174.551 50.9805C174.246 51.1367 173.992 51.3555 173.789 51.6367C173.586 51.918 173.434 52.2461 173.332 52.6211C173.23 52.9883 173.18 53.3906 173.18 53.8281ZM191.355 43.9375V61H187.852V43.9375H191.355ZM196.605 43.9375V46.6914H182.684V43.9375H196.605ZM200.953 51.0859V61H197.578V48.3203H200.754L200.953 51.0859ZM204.773 48.2383L204.715 51.3672C204.551 51.3438 204.352 51.3242 204.117 51.3086C203.891 51.2852 203.684 51.2734 203.496 51.2734C203.02 51.2734 202.605 51.3359 202.254 51.4609C201.91 51.5781 201.621 51.7539 201.387 51.9883C201.16 52.2227 200.988 52.5078 200.871 52.8438C200.762 53.1797 200.699 53.5625 200.684 53.9922L200.004 53.7812C200.004 52.9609 200.086 52.207 200.25 51.5195C200.414 50.8242 200.652 50.2188 200.965 49.7031C201.285 49.1875 201.676 48.7891 202.137 48.5078C202.598 48.2266 203.125 48.0859 203.719 48.0859C203.906 48.0859 204.098 48.1016 204.293 48.1328C204.488 48.1562 204.648 48.1914 204.773 48.2383ZM212.812 58.1406V52.4922C212.812 52.0859 212.746 51.7383 212.613 51.4492C212.48 51.1523 212.273 50.9219 211.992 50.7578C211.719 50.5938 211.363 50.5117 210.926 50.5117C210.551 50.5117 210.227 50.5781 209.953 50.7109C209.68 50.8359 209.469 51.0195 209.32 51.2617C209.172 51.4961 209.098 51.7734 209.098 52.0938H205.723C205.723 51.5547 205.848 51.043 206.098 50.5586C206.348 50.0742 206.711 49.6484 207.188 49.2812C207.664 48.9062 208.23 48.6133 208.887 48.4023C209.551 48.1914 210.293 48.0859 211.113 48.0859C212.098 48.0859 212.973 48.25 213.738 48.5781C214.504 48.9062 215.105 49.3984 215.543 50.0547C215.988 50.7109 216.211 51.5312 216.211 52.5156V57.9414C216.211 58.6367 216.254 59.207 216.34 59.6523C216.426 60.0898 216.551 60.4727 216.715 60.8008V61H213.305C213.141 60.6562 213.016 60.2266 212.93 59.7109C212.852 59.1875 212.812 58.6641 212.812 58.1406ZM213.258 53.2773L213.281 55.1875H211.395C210.949 55.1875 210.562 55.2383 210.234 55.3398C209.906 55.4414 209.637 55.5859 209.426 55.7734C209.215 55.9531 209.059 56.1641 208.957 56.4062C208.863 56.6484 208.816 56.9141 208.816 57.2031C208.816 57.4922 208.883 57.7539 209.016 57.9883C209.148 58.2148 209.34 58.3945 209.59 58.5273C209.84 58.6523 210.133 58.7148 210.469 58.7148C210.977 58.7148 211.418 58.6133 211.793 58.4102C212.168 58.207 212.457 57.957 212.66 57.6602C212.871 57.3633 212.98 57.082 212.988 56.8164L213.879 58.2461C213.754 58.5664 213.582 58.8984 213.363 59.2422C213.152 59.5859 212.883 59.9102 212.555 60.2148C212.227 60.5117 211.832 60.7578 211.371 60.9531C210.91 61.1406 210.363 61.2344 209.73 61.2344C208.926 61.2344 208.195 61.0742 207.539 60.7539C206.891 60.4258 206.375 59.9766 205.992 59.4062C205.617 58.8281 205.43 58.1719 205.43 57.4375C205.43 56.7734 205.555 56.1836 205.805 55.668C206.055 55.1523 206.422 54.7188 206.906 54.3672C207.398 54.0078 208.012 53.7383 208.746 53.5586C209.48 53.3711 210.332 53.2773 211.301 53.2773H213.258ZM224.051 58.5977C224.465 58.5977 224.832 58.5195 225.152 58.3633C225.473 58.1992 225.723 57.9727 225.902 57.6836C226.09 57.3867 226.188 57.0391 226.195 56.6406H229.371C229.363 57.5312 229.125 58.3242 228.656 59.0195C228.188 59.707 227.559 60.25 226.77 60.6484C225.98 61.0391 225.098 61.2344 224.121 61.2344C223.137 61.2344 222.277 61.0703 221.543 60.7422C220.816 60.4141 220.211 59.9609 219.727 59.3828C219.242 58.7969 218.879 58.1172 218.637 57.3438C218.395 56.5625 218.273 55.7266 218.273 54.8359V54.4961C218.273 53.5977 218.395 52.7617 218.637 51.9883C218.879 51.207 219.242 50.5273 219.727 49.9492C220.211 49.3633 220.816 48.9062 221.543 48.5781C222.27 48.25 223.121 48.0859 224.098 48.0859C225.137 48.0859 226.047 48.2852 226.828 48.6836C227.617 49.082 228.234 49.6523 228.68 50.3945C229.133 51.1289 229.363 52 229.371 53.0078H226.195C226.188 52.5859 226.098 52.2031 225.926 51.8594C225.762 51.5156 225.52 51.2422 225.199 51.0391C224.887 50.8281 224.5 50.7227 224.039 50.7227C223.547 50.7227 223.145 50.8281 222.832 51.0391C222.52 51.2422 222.277 51.5234 222.105 51.8828C221.934 52.2344 221.812 52.6367 221.742 53.0898C221.68 53.5352 221.648 54.0039 221.648 54.4961V54.8359C221.648 55.3281 221.68 55.8008 221.742 56.2539C221.805 56.707 221.922 57.1094 222.094 57.4609C222.273 57.8125 222.52 58.0898 222.832 58.293C223.145 58.4961 223.551 58.5977 224.051 58.5977ZM234.703 42.9883V61H231.328V42.9883H234.703ZM242.695 48.3203L237.188 54.6016L234.234 57.5898L233.004 55.1523L235.348 52.1758L238.641 48.3203H242.695ZM239.191 61L235.441 55.1406L237.773 53.1016L243.082 61H239.191Z" fill="#888888"/>
<path d="M104.344 84.875V119H96.1406V84.875H104.344ZM117.727 99.0078V119H109.828V93.6406H117.234L117.727 99.0078ZM116.766 105.453L114.961 105.5C114.961 103.719 115.172 102.078 115.594 100.578C116.016 99.0781 116.641 97.7734 117.469 96.6641C118.297 95.5547 119.312 94.6953 120.516 94.0859C121.734 93.4766 123.141 93.1719 124.734 93.1719C125.844 93.1719 126.852 93.3438 127.758 93.6875C128.664 94.0156 129.445 94.5391 130.102 95.2578C130.758 95.9609 131.258 96.8828 131.602 98.0234C131.961 99.1484 132.141 100.5 132.141 102.078V119H124.242V103.086C124.242 102.008 124.117 101.195 123.867 100.648C123.633 100.102 123.289 99.7344 122.836 99.5469C122.383 99.3594 121.828 99.2656 121.172 99.2656C120.484 99.2656 119.867 99.4219 119.32 99.7344C118.773 100.047 118.305 100.484 117.914 101.047C117.539 101.594 117.25 102.242 117.047 102.992C116.859 103.742 116.766 104.562 116.766 105.453ZM131.25 105.453L129.047 105.5C129.047 103.719 129.242 102.078 129.633 100.578C130.039 99.0781 130.641 97.7734 131.438 96.6641C132.25 95.5547 133.258 94.6953 134.461 94.0859C135.664 93.4766 137.062 93.1719 138.656 93.1719C139.812 93.1719 140.875 93.3438 141.844 93.6875C142.812 94.0312 143.648 94.5859 144.352 95.3516C145.055 96.1172 145.602 97.1328 145.992 98.3984C146.383 99.6484 146.578 101.195 146.578 103.039V119H138.656V103.039C138.656 101.992 138.531 101.203 138.281 100.672C138.047 100.125 137.703 99.7578 137.25 99.5703C136.797 99.3672 136.258 99.2656 135.633 99.2656C134.883 99.2656 134.234 99.4219 133.688 99.7344C133.141 100.047 132.68 100.484 132.305 101.047C131.945 101.594 131.68 102.242 131.508 102.992C131.336 103.742 131.25 104.562 131.25 105.453ZM159.07 98.5156V128.75H151.172V93.6406H158.531L159.07 98.5156ZM174.633 106.016V106.508C174.633 108.352 174.422 110.062 174 111.641C173.578 113.219 172.953 114.594 172.125 115.766C171.297 116.938 170.266 117.852 169.031 118.508C167.812 119.148 166.398 119.469 164.789 119.469C163.273 119.469 161.969 119.133 160.875 118.461C159.781 117.789 158.867 116.859 158.133 115.672C157.398 114.484 156.805 113.125 156.352 111.594C155.898 110.062 155.539 108.445 155.273 106.742V106.109C155.539 104.281 155.898 102.586 156.352 101.023C156.805 99.4453 157.398 98.0703 158.133 96.8984C158.867 95.7266 159.773 94.8125 160.852 94.1562C161.945 93.5 163.25 93.1719 164.766 93.1719C166.375 93.1719 167.789 93.4766 169.008 94.0859C170.242 94.6953 171.273 95.5703 172.102 96.7109C172.945 97.8359 173.578 99.1875 174 100.766C174.422 102.344 174.633 104.094 174.633 106.016ZM166.734 106.508V106.016C166.734 105.031 166.664 104.133 166.523 103.32C166.383 102.492 166.156 101.773 165.844 101.164C165.547 100.555 165.148 100.086 164.648 99.7578C164.148 99.4297 163.531 99.2656 162.797 99.2656C161.953 99.2656 161.242 99.3984 160.664 99.6641C160.102 99.9141 159.648 100.305 159.305 100.836C158.977 101.352 158.742 102 158.602 102.781C158.477 103.547 158.422 104.445 158.438 105.477V107.398C158.406 108.586 158.523 109.633 158.789 110.539C159.055 111.43 159.516 112.125 160.172 112.625C160.828 113.125 161.719 113.375 162.844 113.375C163.594 113.375 164.219 113.203 164.719 112.859C165.219 112.5 165.617 112.008 165.914 111.383C166.211 110.742 166.422 110.008 166.547 109.18C166.672 108.352 166.734 107.461 166.734 106.508ZM186.492 83V119H178.57V83H186.492ZM203.648 119.469C201.586 119.469 199.742 119.148 198.117 118.508C196.492 117.852 195.117 116.953 193.992 115.812C192.883 114.672 192.031 113.359 191.438 111.875C190.859 110.391 190.57 108.82 190.57 107.164V106.273C190.57 104.414 190.828 102.695 191.344 101.117C191.859 99.5234 192.625 98.1328 193.641 96.9453C194.656 95.7578 195.93 94.8359 197.461 94.1797C198.992 93.5078 200.773 93.1719 202.805 93.1719C204.602 93.1719 206.211 93.4609 207.633 94.0391C209.055 94.6172 210.258 95.4453 211.242 96.5234C212.242 97.6016 213 98.9062 213.516 100.438C214.047 101.969 214.312 103.688 214.312 105.594V108.805H193.594V103.859H206.602V103.25C206.617 102.406 206.469 101.688 206.156 101.094C205.859 100.5 205.422 100.047 204.844 99.7344C204.266 99.4219 203.562 99.2656 202.734 99.2656C201.875 99.2656 201.164 99.4531 200.602 99.8281C200.055 100.203 199.625 100.719 199.312 101.375C199.016 102.016 198.805 102.758 198.68 103.602C198.555 104.445 198.492 105.336 198.492 106.273V107.164C198.492 108.102 198.617 108.953 198.867 109.719C199.133 110.484 199.508 111.141 199.992 111.688C200.492 112.219 201.086 112.633 201.773 112.93C202.477 113.227 203.273 113.375 204.164 113.375C205.242 113.375 206.305 113.172 207.352 112.766C208.398 112.359 209.297 111.688 210.047 110.75L213.633 115.016C213.117 115.75 212.383 116.461 211.43 117.148C210.492 117.836 209.367 118.398 208.055 118.836C206.742 119.258 205.273 119.469 203.648 119.469ZM225.492 99.0078V119H217.594V93.6406H225L225.492 99.0078ZM224.531 105.453L222.727 105.5C222.727 103.719 222.938 102.078 223.359 100.578C223.781 99.0781 224.406 97.7734 225.234 96.6641C226.062 95.5547 227.078 94.6953 228.281 94.0859C229.5 93.4766 230.906 93.1719 232.5 93.1719C233.609 93.1719 234.617 93.3438 235.523 93.6875C236.43 94.0156 237.211 94.5391 237.867 95.2578C238.523 95.9609 239.023 96.8828 239.367 98.0234C239.727 99.1484 239.906 100.5 239.906 102.078V119H232.008V103.086C232.008 102.008 231.883 101.195 231.633 100.648C231.398 100.102 231.055 99.7344 230.602 99.5469C230.148 99.3594 229.594 99.2656 228.938 99.2656C228.25 99.2656 227.633 99.4219 227.086 99.7344C226.539 100.047 226.07 100.484 225.68 101.047C225.305 101.594 225.016 102.242 224.812 102.992C224.625 103.742 224.531 104.562 224.531 105.453ZM239.016 105.453L236.812 105.5C236.812 103.719 237.008 102.078 237.398 100.578C237.805 99.0781 238.406 97.7734 239.203 96.6641C240.016 95.5547 241.023 94.6953 242.227 94.0859C243.43 93.4766 244.828 93.1719 246.422 93.1719C247.578 93.1719 248.641 93.3438 249.609 93.6875C250.578 94.0312 251.414 94.5859 252.117 95.3516C252.82 96.1172 253.367 97.1328 253.758 98.3984C254.148 99.6484 254.344 101.195 254.344 103.039V119H246.422V103.039C246.422 101.992 246.297 101.203 246.047 100.672C245.812 100.125 245.469 99.7578 245.016 99.5703C244.562 99.3672 244.023 99.2656 243.398 99.2656C242.648 99.2656 242 99.4219 241.453 99.7344C240.906 100.047 240.445 100.484 240.07 101.047C239.711 101.594 239.445 102.242 239.273 102.992C239.102 103.742 239.016 104.562 239.016 105.453ZM271.148 119.469C269.086 119.469 267.242 119.148 265.617 118.508C263.992 117.852 262.617 116.953 261.492 115.812C260.383 114.672 259.531 113.359 258.938 111.875C258.359 110.391 258.07 108.82 258.07 107.164V106.273C258.07 104.414 258.328 102.695 258.844 101.117C259.359 99.5234 260.125 98.1328 261.141 96.9453C262.156 95.7578 263.43 94.8359 264.961 94.1797C266.492 93.5078 268.273 93.1719 270.305 93.1719C272.102 93.1719 273.711 93.4609 275.133 94.0391C276.555 94.6172 277.758 95.4453 278.742 96.5234C279.742 97.6016 280.5 98.9062 281.016 100.438C281.547 101.969 281.812 103.688 281.812 105.594V108.805H261.094V103.859H274.102V103.25C274.117 102.406 273.969 101.688 273.656 101.094C273.359 100.5 272.922 100.047 272.344 99.7344C271.766 99.4219 271.062 99.2656 270.234 99.2656C269.375 99.2656 268.664 99.4531 268.102 99.8281C267.555 100.203 267.125 100.719 266.812 101.375C266.516 102.016 266.305 102.758 266.18 103.602C266.055 104.445 265.992 105.336 265.992 106.273V107.164C265.992 108.102 266.117 108.953 266.367 109.719C266.633 110.484 267.008 111.141 267.492 111.688C267.992 112.219 268.586 112.633 269.273 112.93C269.977 113.227 270.773 113.375 271.664 113.375C272.742 113.375 273.805 113.172 274.852 112.766C275.898 112.359 276.797 111.688 277.547 110.75L281.133 115.016C280.617 115.75 279.883 116.461 278.93 117.148C277.992 117.836 276.867 118.398 275.555 118.836C274.242 119.258 272.773 119.469 271.148 119.469ZM292.781 99.0547V119H284.883V93.6406H292.289L292.781 99.0547ZM291.844 105.453L289.992 105.5C289.992 103.562 290.227 101.836 290.695 100.32C291.164 98.7891 291.828 97.4922 292.688 96.4297C293.547 95.3672 294.57 94.5625 295.758 94.0156C296.961 93.4531 298.297 93.1719 299.766 93.1719C300.938 93.1719 302.008 93.3438 302.977 93.6875C303.961 94.0312 304.805 94.5859 305.508 95.3516C306.227 96.1172 306.773 97.1328 307.148 98.3984C307.539 99.6484 307.734 101.195 307.734 103.039V119H299.789V103.016C299.789 102 299.648 101.227 299.367 100.695C299.086 100.148 298.68 99.7734 298.148 99.5703C297.617 99.3672 296.969 99.2656 296.203 99.2656C295.391 99.2656 294.703 99.4219 294.141 99.7344C293.578 100.047 293.125 100.484 292.781 101.047C292.453 101.594 292.211 102.242 292.055 102.992C291.914 103.742 291.844 104.562 291.844 105.453ZM325.477 93.6406V99.125H310.195V93.6406H325.477ZM313.406 87.3359H321.305V110.727C321.305 111.398 321.383 111.922 321.539 112.297C321.695 112.656 321.961 112.914 322.336 113.07C322.727 113.211 323.242 113.281 323.883 113.281C324.336 113.281 324.711 113.273 325.008 113.258C325.305 113.227 325.586 113.188 325.852 113.141V118.789C325.18 119.008 324.477 119.172 323.742 119.281C323.008 119.406 322.227 119.469 321.398 119.469C319.711 119.469 318.266 119.203 317.062 118.672C315.875 118.141 314.969 117.305 314.344 116.164C313.719 115.023 313.406 113.539 313.406 111.711V87.3359ZM341.789 112.625V102.172C341.789 101.453 341.688 100.836 341.484 100.32C341.281 99.8047 340.961 99.4062 340.523 99.125C340.086 98.8281 339.5 98.6797 338.766 98.6797C338.172 98.6797 337.664 98.7812 337.242 98.9844C336.82 99.1875 336.5 99.4922 336.281 99.8984C336.062 100.305 335.953 100.82 335.953 101.445H328.055C328.055 100.273 328.312 99.1875 328.828 98.1875C329.359 97.1719 330.109 96.2891 331.078 95.5391C332.062 94.7891 333.234 94.2109 334.594 93.8047C335.969 93.3828 337.5 93.1719 339.188 93.1719C341.203 93.1719 343 93.5078 344.578 94.1797C346.172 94.8516 347.43 95.8594 348.352 97.2031C349.273 98.5312 349.734 100.203 349.734 102.219V112.602C349.734 114.258 349.828 115.516 350.016 116.375C350.203 117.219 350.469 117.961 350.812 118.602V119H342.891C342.516 118.219 342.234 117.266 342.047 116.141C341.875 115 341.789 113.828 341.789 112.625ZM342.75 103.508L342.797 107.727H339.305C338.57 107.727 337.945 107.828 337.43 108.031C336.93 108.234 336.523 108.516 336.211 108.875C335.914 109.219 335.695 109.609 335.555 110.047C335.43 110.484 335.367 110.945 335.367 111.43C335.367 111.898 335.477 112.32 335.695 112.695C335.93 113.055 336.242 113.336 336.633 113.539C337.023 113.742 337.461 113.844 337.945 113.844C338.82 113.844 339.562 113.68 340.172 113.352C340.797 113.008 341.273 112.594 341.602 112.109C341.93 111.625 342.094 111.172 342.094 110.75L343.828 113.984C343.516 114.609 343.156 115.242 342.75 115.883C342.359 116.523 341.867 117.117 341.273 117.664C340.695 118.195 339.984 118.633 339.141 118.977C338.297 119.305 337.273 119.469 336.07 119.469C334.508 119.469 333.07 119.148 331.758 118.508C330.461 117.867 329.422 116.977 328.641 115.836C327.859 114.68 327.469 113.352 327.469 111.852C327.469 110.539 327.703 109.367 328.172 108.336C328.656 107.305 329.383 106.43 330.352 105.711C331.32 104.992 332.555 104.445 334.055 104.07C335.555 103.695 337.32 103.508 339.352 103.508H342.75ZM367.477 93.6406V99.125H352.195V93.6406H367.477ZM355.406 87.3359H363.305V110.727C363.305 111.398 363.383 111.922 363.539 112.297C363.695 112.656 363.961 112.914 364.336 113.07C364.727 113.211 365.242 113.281 365.883 113.281C366.336 113.281 366.711 113.273 367.008 113.258C367.305 113.227 367.586 113.188 367.852 113.141V118.789C367.18 119.008 366.477 119.172 365.742 119.281C365.008 119.406 364.227 119.469 363.398 119.469C361.711 119.469 360.266 119.203 359.062 118.672C357.875 118.141 356.969 117.305 356.344 116.164C355.719 115.023 355.406 113.539 355.406 111.711V87.3359ZM378.961 93.6406V119H371.039V93.6406H378.961ZM370.57 87.1016C370.57 85.9766 370.977 85.0547 371.789 84.3359C372.602 83.6172 373.656 83.2578 374.953 83.2578C376.25 83.2578 377.305 83.6172 378.117 84.3359C378.93 85.0547 379.336 85.9766 379.336 87.1016C379.336 88.2266 378.93 89.1484 378.117 89.8672C377.305 90.5859 376.25 90.9453 374.953 90.9453C373.656 90.9453 372.602 90.5859 371.789 89.8672C370.977 89.1484 370.57 88.2266 370.57 87.1016ZM382.852 106.578V106.086C382.852 104.227 383.117 102.516 383.648 100.953C384.18 99.375 384.961 98.0078 385.992 96.8516C387.023 95.6953 388.297 94.7969 389.812 94.1562C391.328 93.5 393.078 93.1719 395.062 93.1719C397.062 93.1719 398.82 93.5 400.336 94.1562C401.867 94.7969 403.148 95.6953 404.18 96.8516C405.211 98.0078 405.992 99.375 406.523 100.953C407.055 102.516 407.32 104.227 407.32 106.086V106.578C407.32 108.422 407.055 110.133 406.523 111.711C405.992 113.273 405.211 114.641 404.18 115.812C403.148 116.969 401.875 117.867 400.359 118.508C398.844 119.148 397.094 119.469 395.109 119.469C393.125 119.469 391.367 119.148 389.836 118.508C388.305 117.867 387.023 116.969 385.992 115.812C384.961 114.641 384.18 113.273 383.648 111.711C383.117 110.133 382.852 108.422 382.852 106.578ZM390.75 106.086V106.578C390.75 107.531 390.82 108.422 390.961 109.25C391.102 110.078 391.336 110.805 391.664 111.43C391.992 112.039 392.438 112.516 393 112.859C393.562 113.203 394.266 113.375 395.109 113.375C395.938 113.375 396.625 113.203 397.172 112.859C397.734 112.516 398.18 112.039 398.508 111.43C398.836 110.805 399.07 110.078 399.211 109.25C399.352 108.422 399.422 107.531 399.422 106.578V106.086C399.422 105.164 399.352 104.297 399.211 103.484C399.07 102.656 398.836 101.93 398.508 101.305C398.18 100.664 397.734 100.164 397.172 99.8047C396.609 99.4453 395.906 99.2656 395.062 99.2656C394.234 99.2656 393.539 99.4453 392.977 99.8047C392.43 100.164 391.992 100.664 391.664 101.305C391.336 101.93 391.102 102.656 390.961 103.484C390.82 104.297 390.75 105.164 390.75 106.086ZM418.594 99.0547V119H410.695V93.6406H418.102L418.594 99.0547ZM417.656 105.453L415.805 105.5C415.805 103.562 416.039 101.836 416.508 100.32C416.977 98.7891 417.641 97.4922 418.5 96.4297C419.359 95.3672 420.383 94.5625 421.57 94.0156C422.773 93.4531 424.109 93.1719 425.578 93.1719C426.75 93.1719 427.82 93.3438 428.789 93.6875C429.773 94.0312 430.617 94.5859 431.32 95.3516C432.039 96.1172 432.586 97.1328 432.961 98.3984C433.352 99.6484 433.547 101.195 433.547 103.039V119H425.602V103.016C425.602 102 425.461 101.227 425.18 100.695C424.898 100.148 424.492 99.7734 423.961 99.5703C423.43 99.3672 422.781 99.2656 422.016 99.2656C421.203 99.2656 420.516 99.4219 419.953 99.7344C419.391 100.047 418.938 100.484 418.594 101.047C418.266 101.594 418.023 102.242 417.867 102.992C417.727 103.742 417.656 104.562 417.656 105.453Z" fill="black"/>
<path d="M1134 0H1348C1356.28 0 1363 6.71573 1363 15V148C1363 156.284 1356.28 163 1348 163H1134V0Z" fill="#20B2AA"/>
<path d="M1280.07 47.5H1216.93L1214.5 49.9286V113.071L1216.93 115.5H1280.07L1282.5 113.071V49.9286L1280.07 47.5ZM1277.64 110.643H1233.93V100.929H1245.1C1246.56 103.843 1249.96 105.786 1253.36 105.786C1258.7 105.786 1263.07 101.414 1263.07 96.0714C1263.07 90.7286 1258.7 86.3571 1253.36 86.3571C1248.01 86.3571 1243.64 90.7286 1243.64 96.0714H1229.07V110.643H1219.36V52.3571H1229.07V63.5286C1226.16 64.9857 1224.21 68.3857 1224.21 71.7857C1224.21 77.1286 1228.59 81.5 1233.93 81.5C1239.27 81.5 1243.64 77.1286 1243.64 71.7857H1253.36C1253.36 77.1286 1257.73 81.5 1263.07 81.5C1268.41 81.5 1272.79 77.1286 1272.79 71.7857C1272.79 66.4429 1268.41 62.0714 1263.07 62.0714C1259.67 62.0714 1256.27 64.0143 1254.81 66.9286H1242.19C1240.73 64.0143 1237.33 62.0714 1233.93 62.0714V52.3571H1277.64V110.643ZM1248.5 96.0714C1248.5 93.1571 1250.44 91.2143 1253.36 91.2143C1256.27 91.2143 1258.21 93.1571 1258.21 96.0714C1258.21 98.9857 1256.27 100.929 1253.36 100.929C1250.44 100.929 1248.5 98.9857 1248.5 96.0714ZM1233.93 66.9286C1236.84 66.9286 1238.79 68.8714 1238.79 71.7857C1238.79 74.7 1236.84 76.6429 1233.93 76.6429C1231.01 76.6429 1229.07 74.7 1229.07 71.7857C1229.07 68.8714 1231.01 66.9286 1233.93 66.9286ZM1263.07 66.9286C1265.99 66.9286 1267.93 68.8714 1267.93 71.7857C1267.93 74.7 1265.99 76.6429 1263.07 76.6429C1260.16 76.6429 1258.21 74.7 1258.21 71.7857C1258.21 68.8714 1260.16 66.9286 1263.07 66.9286Z" fill="white"/>
</svg>
