<svg width="1363" height="163" viewBox="0 0 1363 163" fill="none" xmlns="http://www.w3.org/2000/svg">
<path d="M0 15C0 6.71573 6.71573 0 15 0H37V163H15C6.71573 163 0 156.284 0 148V15Z" fill="#424242"/>
<rect width="1097" height="163" transform="translate(37)" fill="#F0F0F0"/>
<path d="M101.906 53.9219L94.3945 51.2383V48.0859L104.602 52.375V54.6367L101.906 53.9219ZM94.3945 56.1719L101.918 53.4297L104.602 52.7852V55.0352L94.3945 59.3242V56.1719ZM122.789 55.3398H126.293C126.223 56.4883 125.906 57.5078 125.344 58.3984C124.789 59.2891 124.012 59.9844 123.012 60.4844C122.02 60.9844 120.824 61.2344 119.426 61.2344C118.332 61.2344 117.352 61.0469 116.484 60.6719C115.617 60.2891 114.875 59.7422 114.258 59.0312C113.648 58.3203 113.184 57.4609 112.863 56.4531C112.543 55.4453 112.383 54.3164 112.383 53.0664V51.8828C112.383 50.6328 112.547 49.5039 112.875 48.4961C113.211 47.4805 113.688 46.6172 114.305 45.9062C114.93 45.1953 115.676 44.6484 116.543 44.2656C117.41 43.8828 118.379 43.6914 119.449 43.6914C120.871 43.6914 122.07 43.9492 123.047 44.4648C124.031 44.9805 124.793 45.6914 125.332 46.5977C125.879 47.5039 126.207 48.5352 126.316 49.6914H122.801C122.762 49.0039 122.625 48.4219 122.391 47.9453C122.156 47.4609 121.801 47.0977 121.324 46.8555C120.855 46.6055 120.23 46.4805 119.449 46.4805C118.863 46.4805 118.352 46.5898 117.914 46.8086C117.477 47.0273 117.109 47.3594 116.812 47.8047C116.516 48.25 116.293 48.8125 116.145 49.4922C116.004 50.1641 115.934 50.9531 115.934 51.8594V53.0664C115.934 53.9492 116 54.7266 116.133 55.3984C116.266 56.0625 116.469 56.625 116.742 57.0859C117.023 57.5391 117.383 57.8828 117.82 58.1172C118.266 58.3438 118.801 58.457 119.426 58.457C120.16 58.457 120.766 58.3398 121.242 58.1055C121.719 57.8711 122.082 57.5234 122.332 57.0625C122.59 56.6016 122.742 56.0273 122.789 55.3398ZM127.852 54.7891V54.543C127.852 53.6133 127.984 52.7578 128.25 51.9766C128.516 51.1875 128.902 50.5039 129.41 49.9258C129.918 49.3477 130.543 48.8984 131.285 48.5781C132.027 48.25 132.879 48.0859 133.84 48.0859C134.801 48.0859 135.656 48.25 136.406 48.5781C137.156 48.8984 137.785 49.3477 138.293 49.9258C138.809 50.5039 139.199 51.1875 139.465 51.9766C139.73 52.7578 139.863 53.6133 139.863 54.543V54.7891C139.863 55.7109 139.73 56.5664 139.465 57.3555C139.199 58.1367 138.809 58.8203 138.293 59.4062C137.785 59.9844 137.16 60.4336 136.418 60.7539C135.676 61.0742 134.824 61.2344 133.863 61.2344C132.902 61.2344 132.047 61.0742 131.297 60.7539C130.555 60.4336 129.926 59.9844 129.41 59.4062C128.902 58.8203 128.516 58.1367 128.25 57.3555C127.984 56.5664 127.852 55.7109 127.852 54.7891ZM131.227 54.543V54.7891C131.227 55.3203 131.273 55.8164 131.367 56.2773C131.461 56.7383 131.609 57.1445 131.812 57.4961C132.023 57.8398 132.297 58.1094 132.633 58.3047C132.969 58.5 133.379 58.5977 133.863 58.5977C134.332 58.5977 134.734 58.5 135.07 58.3047C135.406 58.1094 135.676 57.8398 135.879 57.4961C136.082 57.1445 136.23 56.7383 136.324 56.2773C136.426 55.8164 136.477 55.3203 136.477 54.7891V54.543C136.477 54.0273 136.426 53.543 136.324 53.0898C136.23 52.6289 136.078 52.2227 135.867 51.8711C135.664 51.5117 135.395 51.2305 135.059 51.0273C134.723 50.8242 134.316 50.7227 133.84 50.7227C133.363 50.7227 132.957 50.8242 132.621 51.0273C132.293 51.2305 132.023 51.5117 131.812 51.8711C131.609 52.2227 131.461 52.6289 131.367 53.0898C131.273 53.543 131.227 54.0273 131.227 54.543ZM145.312 50.9453V61H141.926V48.3203H145.102L145.312 50.9453ZM144.844 54.2148H143.906C143.906 53.332 144.012 52.5195 144.223 51.7773C144.441 51.0273 144.758 50.3789 145.172 49.832C145.594 49.2773 146.113 48.8477 146.73 48.543C147.348 48.2383 148.062 48.0859 148.875 48.0859C149.438 48.0859 149.953 48.1719 150.422 48.3438C150.891 48.5078 151.293 48.7695 151.629 49.1289C151.973 49.4805 152.238 49.9414 152.426 50.5117C152.613 51.0742 152.707 51.75 152.707 52.5391V61H149.332V52.9141C149.332 52.3359 149.254 51.8906 149.098 51.5781C148.941 51.2656 148.719 51.0469 148.43 50.9219C148.148 50.7969 147.809 50.7344 147.41 50.7344C146.973 50.7344 146.59 50.8242 146.262 51.0039C145.941 51.1836 145.676 51.4336 145.465 51.7539C145.254 52.0664 145.098 52.4336 144.996 52.8555C144.895 53.2773 144.844 53.7305 144.844 54.2148ZM152.391 53.8281L151.184 53.9805C151.184 53.1523 151.285 52.3828 151.488 51.6719C151.699 50.9609 152.008 50.3359 152.414 49.7969C152.828 49.2578 153.34 48.8398 153.949 48.543C154.559 48.2383 155.262 48.0859 156.059 48.0859C156.668 48.0859 157.223 48.1758 157.723 48.3555C158.223 48.5273 158.648 48.8047 159 49.1875C159.359 49.5625 159.633 50.0547 159.82 50.6641C160.016 51.2734 160.113 52.0195 160.113 52.9023V61H156.727V52.9023C156.727 52.3164 156.648 51.8711 156.492 51.5664C156.344 51.2539 156.125 51.0391 155.836 50.9219C155.555 50.7969 155.219 50.7344 154.828 50.7344C154.422 50.7344 154.066 50.8164 153.762 50.9805C153.457 51.1367 153.203 51.3555 153 51.6367C152.797 51.918 152.645 52.2461 152.543 52.6211C152.441 52.9883 152.391 53.3906 152.391 53.8281ZM166.102 50.9453V61H162.715V48.3203H165.891L166.102 50.9453ZM165.633 54.2148H164.695C164.695 53.332 164.801 52.5195 165.012 51.7773C165.23 51.0273 165.547 50.3789 165.961 49.832C166.383 49.2773 166.902 48.8477 167.52 48.543C168.137 48.2383 168.852 48.0859 169.664 48.0859C170.227 48.0859 170.742 48.1719 171.211 48.3438C171.68 48.5078 172.082 48.7695 172.418 49.1289C172.762 49.4805 173.027 49.9414 173.215 50.5117C173.402 51.0742 173.496 51.75 173.496 52.5391V61H170.121V52.9141C170.121 52.3359 170.043 51.8906 169.887 51.5781C169.73 51.2656 169.508 51.0469 169.219 50.9219C168.938 50.7969 168.598 50.7344 168.199 50.7344C167.762 50.7344 167.379 50.8242 167.051 51.0039C166.73 51.1836 166.465 51.4336 166.254 51.7539C166.043 52.0664 165.887 52.4336 165.785 52.8555C165.684 53.2773 165.633 53.7305 165.633 54.2148ZM173.18 53.8281L171.973 53.9805C171.973 53.1523 172.074 52.3828 172.277 51.6719C172.488 50.9609 172.797 50.3359 173.203 49.7969C173.617 49.2578 174.129 48.8398 174.738 48.543C175.348 48.2383 176.051 48.0859 176.848 48.0859C177.457 48.0859 178.012 48.1758 178.512 48.3555C179.012 48.5273 179.438 48.8047 179.789 49.1875C180.148 49.5625 180.422 50.0547 180.609 50.6641C180.805 51.2734 180.902 52.0195 180.902 52.9023V61H177.516V52.9023C177.516 52.3164 177.438 51.8711 177.281 51.5664C177.133 51.2539 176.914 51.0391 176.625 50.9219C176.344 50.7969 176.008 50.7344 175.617 50.7344C175.211 50.7344 174.855 50.8164 174.551 50.9805C174.246 51.1367 173.992 51.3555 173.789 51.6367C173.586 51.918 173.434 52.2461 173.332 52.6211C173.23 52.9883 173.18 53.3906 173.18 53.8281ZM191.355 43.9375V61H187.852V43.9375H191.355ZM196.605 43.9375V46.6914H182.684V43.9375H196.605ZM200.953 51.0859V61H197.578V48.3203H200.754L200.953 51.0859ZM204.773 48.2383L204.715 51.3672C204.551 51.3438 204.352 51.3242 204.117 51.3086C203.891 51.2852 203.684 51.2734 203.496 51.2734C203.02 51.2734 202.605 51.3359 202.254 51.4609C201.91 51.5781 201.621 51.7539 201.387 51.9883C201.16 52.2227 200.988 52.5078 200.871 52.8438C200.762 53.1797 200.699 53.5625 200.684 53.9922L200.004 53.7812C200.004 52.9609 200.086 52.207 200.25 51.5195C200.414 50.8242 200.652 50.2188 200.965 49.7031C201.285 49.1875 201.676 48.7891 202.137 48.5078C202.598 48.2266 203.125 48.0859 203.719 48.0859C203.906 48.0859 204.098 48.1016 204.293 48.1328C204.488 48.1562 204.648 48.1914 204.773 48.2383ZM212.812 58.1406V52.4922C212.812 52.0859 212.746 51.7383 212.613 51.4492C212.48 51.1523 212.273 50.9219 211.992 50.7578C211.719 50.5938 211.363 50.5117 210.926 50.5117C210.551 50.5117 210.227 50.5781 209.953 50.7109C209.68 50.8359 209.469 51.0195 209.32 51.2617C209.172 51.4961 209.098 51.7734 209.098 52.0938H205.723C205.723 51.5547 205.848 51.043 206.098 50.5586C206.348 50.0742 206.711 49.6484 207.188 49.2812C207.664 48.9062 208.23 48.6133 208.887 48.4023C209.551 48.1914 210.293 48.0859 211.113 48.0859C212.098 48.0859 212.973 48.25 213.738 48.5781C214.504 48.9062 215.105 49.3984 215.543 50.0547C215.988 50.7109 216.211 51.5312 216.211 52.5156V57.9414C216.211 58.6367 216.254 59.207 216.34 59.6523C216.426 60.0898 216.551 60.4727 216.715 60.8008V61H213.305C213.141 60.6562 213.016 60.2266 212.93 59.7109C212.852 59.1875 212.812 58.6641 212.812 58.1406ZM213.258 53.2773L213.281 55.1875H211.395C210.949 55.1875 210.562 55.2383 210.234 55.3398C209.906 55.4414 209.637 55.5859 209.426 55.7734C209.215 55.9531 209.059 56.1641 208.957 56.4062C208.863 56.6484 208.816 56.9141 208.816 57.2031C208.816 57.4922 208.883 57.7539 209.016 57.9883C209.148 58.2148 209.34 58.3945 209.59 58.5273C209.84 58.6523 210.133 58.7148 210.469 58.7148C210.977 58.7148 211.418 58.6133 211.793 58.4102C212.168 58.207 212.457 57.957 212.66 57.6602C212.871 57.3633 212.98 57.082 212.988 56.8164L213.879 58.2461C213.754 58.5664 213.582 58.8984 213.363 59.2422C213.152 59.5859 212.883 59.9102 212.555 60.2148C212.227 60.5117 211.832 60.7578 211.371 60.9531C210.91 61.1406 210.363 61.2344 209.73 61.2344C208.926 61.2344 208.195 61.0742 207.539 60.7539C206.891 60.4258 206.375 59.9766 205.992 59.4062C205.617 58.8281 205.43 58.1719 205.43 57.4375C205.43 56.7734 205.555 56.1836 205.805 55.668C206.055 55.1523 206.422 54.7188 206.906 54.3672C207.398 54.0078 208.012 53.7383 208.746 53.5586C209.48 53.3711 210.332 53.2773 211.301 53.2773H213.258ZM224.051 58.5977C224.465 58.5977 224.832 58.5195 225.152 58.3633C225.473 58.1992 225.723 57.9727 225.902 57.6836C226.09 57.3867 226.188 57.0391 226.195 56.6406H229.371C229.363 57.5312 229.125 58.3242 228.656 59.0195C228.188 59.707 227.559 60.25 226.77 60.6484C225.98 61.0391 225.098 61.2344 224.121 61.2344C223.137 61.2344 222.277 61.0703 221.543 60.7422C220.816 60.4141 220.211 59.9609 219.727 59.3828C219.242 58.7969 218.879 58.1172 218.637 57.3438C218.395 56.5625 218.273 55.7266 218.273 54.8359V54.4961C218.273 53.5977 218.395 52.7617 218.637 51.9883C218.879 51.207 219.242 50.5273 219.727 49.9492C220.211 49.3633 220.816 48.9062 221.543 48.5781C222.27 48.25 223.121 48.0859 224.098 48.0859C225.137 48.0859 226.047 48.2852 226.828 48.6836C227.617 49.082 228.234 49.6523 228.68 50.3945C229.133 51.1289 229.363 52 229.371 53.0078H226.195C226.188 52.5859 226.098 52.2031 225.926 51.8594C225.762 51.5156 225.52 51.2422 225.199 51.0391C224.887 50.8281 224.5 50.7227 224.039 50.7227C223.547 50.7227 223.145 50.8281 222.832 51.0391C222.52 51.2422 222.277 51.5234 222.105 51.8828C221.934 52.2344 221.812 52.6367 221.742 53.0898C221.68 53.5352 221.648 54.0039 221.648 54.4961V54.8359C221.648 55.3281 221.68 55.8008 221.742 56.2539C221.805 56.707 221.922 57.1094 222.094 57.4609C222.273 57.8125 222.52 58.0898 222.832 58.293C223.145 58.4961 223.551 58.5977 224.051 58.5977ZM234.703 42.9883V61H231.328V42.9883H234.703ZM242.695 48.3203L237.188 54.6016L234.234 57.5898L233.004 55.1523L235.348 52.1758L238.641 48.3203H242.695ZM239.191 61L235.441 55.1406L237.773 53.1016L243.082 61H239.191Z" fill="#888888"/>
<path d="M114.117 84.875H122.344V107.164C122.344 109.82 121.789 112.07 120.68 113.914C119.57 115.742 118.016 117.125 116.016 118.062C114.016 119 111.664 119.469 108.961 119.469C106.289 119.469 103.938 119 101.906 118.062C99.8906 117.125 98.3125 115.742 97.1719 113.914C96.0469 112.07 95.4844 109.82 95.4844 107.164V84.875H103.734V107.164C103.734 108.57 103.938 109.719 104.344 110.609C104.75 111.484 105.344 112.125 106.125 112.531C106.906 112.938 107.852 113.141 108.961 113.141C110.086 113.141 111.031 112.938 111.797 112.531C112.562 112.125 113.141 111.484 113.531 110.609C113.922 109.719 114.117 108.57 114.117 107.164V84.875ZM136.266 84.875V119H128.062V84.875H136.266ZM172.523 84.875H180.75V107.164C180.75 109.82 180.195 112.07 179.086 113.914C177.977 115.742 176.422 117.125 174.422 118.062C172.422 119 170.07 119.469 167.367 119.469C164.695 119.469 162.344 119 160.312 118.062C158.297 117.125 156.719 115.742 155.578 113.914C154.453 112.07 153.891 109.82 153.891 107.164V84.875H162.141V107.164C162.141 108.57 162.344 109.719 162.75 110.609C163.156 111.484 163.75 112.125 164.531 112.531C165.312 112.938 166.258 113.141 167.367 113.141C168.492 113.141 169.438 112.938 170.203 112.531C170.969 112.125 171.547 111.484 171.938 110.609C172.328 109.719 172.523 108.57 172.523 107.164V84.875ZM193.078 84.875L198.656 96.2188L204.234 84.875H213.609L204.094 101.797L213.867 119H204.398L198.656 107.445L192.914 119H183.422L193.219 101.797L183.68 84.875H193.078Z" fill="black"/>
<path d="M1134 0H1348C1356.28 0 1363 6.71573 1363 15V148C1363 156.284 1356.28 163 1348 163H1134V0Z" fill="#20B2AA"/>
<path d="M1248.5 111.917C1244.51 111.917 1240.55 111.13 1236.86 109.601C1233.17 108.073 1229.82 105.832 1226.99 103.008C1221.29 97.3036 1218.08 89.567 1218.08 81.5C1218.08 73.433 1221.29 65.6964 1226.99 59.9922C1232.7 54.2879 1240.43 51.0833 1248.5 51.0833C1265.23 51.0833 1278.92 63.25 1278.92 78.4583C1278.92 83.2985 1276.99 87.9405 1273.57 91.363C1270.15 94.7856 1265.51 96.7083 1260.67 96.7083H1255.19C1254.28 96.7083 1253.67 97.3167 1253.67 98.2292C1253.67 98.5333 1253.97 98.8375 1253.97 99.1417C1255.19 100.662 1255.8 102.487 1255.8 104.312C1256.1 108.571 1252.76 111.917 1248.5 111.917ZM1248.5 57.1667C1242.05 57.1667 1235.86 59.7303 1231.29 64.2937C1226.73 68.8571 1224.17 75.0464 1224.17 81.5C1224.17 87.9536 1226.73 94.1429 1231.29 98.7063C1235.86 103.27 1242.05 105.833 1248.5 105.833C1249.41 105.833 1250.02 105.225 1250.02 104.312C1250.02 103.704 1249.72 103.4 1249.72 103.096C1248.5 101.575 1247.89 100.054 1247.89 98.2292C1247.89 93.9708 1251.24 90.625 1255.5 90.625H1260.67C1263.89 90.625 1266.99 89.3432 1269.27 87.0615C1271.55 84.7798 1272.83 81.6851 1272.83 78.4583C1272.83 66.5958 1261.88 57.1667 1248.5 57.1667ZM1231.77 75.4167C1234.2 75.4167 1236.33 77.5458 1236.33 79.9792C1236.33 82.4125 1234.2 84.5417 1231.77 84.5417C1229.34 84.5417 1227.21 82.4125 1227.21 79.9792C1227.21 77.5458 1229.34 75.4167 1231.77 75.4167ZM1240.9 63.25C1243.33 63.25 1245.46 65.3792 1245.46 67.8125C1245.46 70.2458 1243.33 72.375 1240.9 72.375C1238.46 72.375 1236.33 70.2458 1236.33 67.8125C1236.33 65.3792 1238.46 63.25 1240.9 63.25ZM1256.1 63.25C1258.54 63.25 1260.67 65.3792 1260.67 67.8125C1260.67 70.2458 1258.54 72.375 1256.1 72.375C1253.67 72.375 1251.54 70.2458 1251.54 67.8125C1251.54 65.3792 1253.67 63.25 1256.1 63.25ZM1265.23 75.4167C1267.66 75.4167 1269.79 77.5458 1269.79 79.9792C1269.79 82.4125 1267.66 84.5417 1265.23 84.5417C1262.8 84.5417 1260.67 82.4125 1260.67 79.9792C1260.67 77.5458 1262.8 75.4167 1265.23 75.4167Z" fill="white"/>
</svg>
