<svg width="1363" height="163" viewBox="0 0 1363 163" fill="none" xmlns="http://www.w3.org/2000/svg">
<path d="M0 15C0 6.71573 6.71573 0 15 0H37V163H15C6.71573 163 0 156.284 0 148V15Z" fill="#424242"/>
<rect width="1097" height="163" transform="translate(37)" fill="#F0F0F0"/>
<path d="M101.906 53.9219L94.3945 51.2383V48.0859L104.602 52.375V54.6367L101.906 53.9219ZM94.3945 56.1719L101.918 53.4297L104.602 52.7852V55.0352L94.3945 59.3242V56.1719ZM122.789 55.3398H126.293C126.223 56.4883 125.906 57.5078 125.344 58.3984C124.789 59.2891 124.012 59.9844 123.012 60.4844C122.02 60.9844 120.824 61.2344 119.426 61.2344C118.332 61.2344 117.352 61.0469 116.484 60.6719C115.617 60.2891 114.875 59.7422 114.258 59.0312C113.648 58.3203 113.184 57.4609 112.863 56.4531C112.543 55.4453 112.383 54.3164 112.383 53.0664V51.8828C112.383 50.6328 112.547 49.5039 112.875 48.4961C113.211 47.4805 113.688 46.6172 114.305 45.9062C114.93 45.1953 115.676 44.6484 116.543 44.2656C117.41 43.8828 118.379 43.6914 119.449 43.6914C120.871 43.6914 122.07 43.9492 123.047 44.4648C124.031 44.9805 124.793 45.6914 125.332 46.5977C125.879 47.5039 126.207 48.5352 126.316 49.6914H122.801C122.762 49.0039 122.625 48.4219 122.391 47.9453C122.156 47.4609 121.801 47.0977 121.324 46.8555C120.855 46.6055 120.23 46.4805 119.449 46.4805C118.863 46.4805 118.352 46.5898 117.914 46.8086C117.477 47.0273 117.109 47.3594 116.812 47.8047C116.516 48.25 116.293 48.8125 116.145 49.4922C116.004 50.1641 115.934 50.9531 115.934 51.8594V53.0664C115.934 53.9492 116 54.7266 116.133 55.3984C116.266 56.0625 116.469 56.625 116.742 57.0859C117.023 57.5391 117.383 57.8828 117.82 58.1172C118.266 58.3438 118.801 58.457 119.426 58.457C120.16 58.457 120.766 58.3398 121.242 58.1055C121.719 57.8711 122.082 57.5234 122.332 57.0625C122.59 56.6016 122.742 56.0273 122.789 55.3398ZM127.852 54.7891V54.543C127.852 53.6133 127.984 52.7578 128.25 51.9766C128.516 51.1875 128.902 50.5039 129.41 49.9258C129.918 49.3477 130.543 48.8984 131.285 48.5781C132.027 48.25 132.879 48.0859 133.84 48.0859C134.801 48.0859 135.656 48.25 136.406 48.5781C137.156 48.8984 137.785 49.3477 138.293 49.9258C138.809 50.5039 139.199 51.1875 139.465 51.9766C139.73 52.7578 139.863 53.6133 139.863 54.543V54.7891C139.863 55.7109 139.73 56.5664 139.465 57.3555C139.199 58.1367 138.809 58.8203 138.293 59.4062C137.785 59.9844 137.16 60.4336 136.418 60.7539C135.676 61.0742 134.824 61.2344 133.863 61.2344C132.902 61.2344 132.047 61.0742 131.297 60.7539C130.555 60.4336 129.926 59.9844 129.41 59.4062C128.902 58.8203 128.516 58.1367 128.25 57.3555C127.984 56.5664 127.852 55.7109 127.852 54.7891ZM131.227 54.543V54.7891C131.227 55.3203 131.273 55.8164 131.367 56.2773C131.461 56.7383 131.609 57.1445 131.812 57.4961C132.023 57.8398 132.297 58.1094 132.633 58.3047C132.969 58.5 133.379 58.5977 133.863 58.5977C134.332 58.5977 134.734 58.5 135.07 58.3047C135.406 58.1094 135.676 57.8398 135.879 57.4961C136.082 57.1445 136.23 56.7383 136.324 56.2773C136.426 55.8164 136.477 55.3203 136.477 54.7891V54.543C136.477 54.0273 136.426 53.543 136.324 53.0898C136.23 52.6289 136.078 52.2227 135.867 51.8711C135.664 51.5117 135.395 51.2305 135.059 51.0273C134.723 50.8242 134.316 50.7227 133.84 50.7227C133.363 50.7227 132.957 50.8242 132.621 51.0273C132.293 51.2305 132.023 51.5117 131.812 51.8711C131.609 52.2227 131.461 52.6289 131.367 53.0898C131.273 53.543 131.227 54.0273 131.227 54.543ZM145.312 50.9453V61H141.926V48.3203H145.102L145.312 50.9453ZM144.844 54.2148H143.906C143.906 53.332 144.012 52.5195 144.223 51.7773C144.441 51.0273 144.758 50.3789 145.172 49.832C145.594 49.2773 146.113 48.8477 146.73 48.543C147.348 48.2383 148.062 48.0859 148.875 48.0859C149.438 48.0859 149.953 48.1719 150.422 48.3438C150.891 48.5078 151.293 48.7695 151.629 49.1289C151.973 49.4805 152.238 49.9414 152.426 50.5117C152.613 51.0742 152.707 51.75 152.707 52.5391V61H149.332V52.9141C149.332 52.3359 149.254 51.8906 149.098 51.5781C148.941 51.2656 148.719 51.0469 148.43 50.9219C148.148 50.7969 147.809 50.7344 147.41 50.7344C146.973 50.7344 146.59 50.8242 146.262 51.0039C145.941 51.1836 145.676 51.4336 145.465 51.7539C145.254 52.0664 145.098 52.4336 144.996 52.8555C144.895 53.2773 144.844 53.7305 144.844 54.2148ZM152.391 53.8281L151.184 53.9805C151.184 53.1523 151.285 52.3828 151.488 51.6719C151.699 50.9609 152.008 50.3359 152.414 49.7969C152.828 49.2578 153.34 48.8398 153.949 48.543C154.559 48.2383 155.262 48.0859 156.059 48.0859C156.668 48.0859 157.223 48.1758 157.723 48.3555C158.223 48.5273 158.648 48.8047 159 49.1875C159.359 49.5625 159.633 50.0547 159.82 50.6641C160.016 51.2734 160.113 52.0195 160.113 52.9023V61H156.727V52.9023C156.727 52.3164 156.648 51.8711 156.492 51.5664C156.344 51.2539 156.125 51.0391 155.836 50.9219C155.555 50.7969 155.219 50.7344 154.828 50.7344C154.422 50.7344 154.066 50.8164 153.762 50.9805C153.457 51.1367 153.203 51.3555 153 51.6367C152.797 51.918 152.645 52.2461 152.543 52.6211C152.441 52.9883 152.391 53.3906 152.391 53.8281ZM166.102 50.9453V61H162.715V48.3203H165.891L166.102 50.9453ZM165.633 54.2148H164.695C164.695 53.332 164.801 52.5195 165.012 51.7773C165.23 51.0273 165.547 50.3789 165.961 49.832C166.383 49.2773 166.902 48.8477 167.52 48.543C168.137 48.2383 168.852 48.0859 169.664 48.0859C170.227 48.0859 170.742 48.1719 171.211 48.3438C171.68 48.5078 172.082 48.7695 172.418 49.1289C172.762 49.4805 173.027 49.9414 173.215 50.5117C173.402 51.0742 173.496 51.75 173.496 52.5391V61H170.121V52.9141C170.121 52.3359 170.043 51.8906 169.887 51.5781C169.73 51.2656 169.508 51.0469 169.219 50.9219C168.938 50.7969 168.598 50.7344 168.199 50.7344C167.762 50.7344 167.379 50.8242 167.051 51.0039C166.73 51.1836 166.465 51.4336 166.254 51.7539C166.043 52.0664 165.887 52.4336 165.785 52.8555C165.684 53.2773 165.633 53.7305 165.633 54.2148ZM173.18 53.8281L171.973 53.9805C171.973 53.1523 172.074 52.3828 172.277 51.6719C172.488 50.9609 172.797 50.3359 173.203 49.7969C173.617 49.2578 174.129 48.8398 174.738 48.543C175.348 48.2383 176.051 48.0859 176.848 48.0859C177.457 48.0859 178.012 48.1758 178.512 48.3555C179.012 48.5273 179.438 48.8047 179.789 49.1875C180.148 49.5625 180.422 50.0547 180.609 50.6641C180.805 51.2734 180.902 52.0195 180.902 52.9023V61H177.516V52.9023C177.516 52.3164 177.438 51.8711 177.281 51.5664C177.133 51.2539 176.914 51.0391 176.625 50.9219C176.344 50.7969 176.008 50.7344 175.617 50.7344C175.211 50.7344 174.855 50.8164 174.551 50.9805C174.246 51.1367 173.992 51.3555 173.789 51.6367C173.586 51.918 173.434 52.2461 173.332 52.6211C173.23 52.9883 173.18 53.3906 173.18 53.8281ZM191.355 43.9375V61H187.852V43.9375H191.355ZM196.605 43.9375V46.6914H182.684V43.9375H196.605ZM200.953 51.0859V61H197.578V48.3203H200.754L200.953 51.0859ZM204.773 48.2383L204.715 51.3672C204.551 51.3438 204.352 51.3242 204.117 51.3086C203.891 51.2852 203.684 51.2734 203.496 51.2734C203.02 51.2734 202.605 51.3359 202.254 51.4609C201.91 51.5781 201.621 51.7539 201.387 51.9883C201.16 52.2227 200.988 52.5078 200.871 52.8438C200.762 53.1797 200.699 53.5625 200.684 53.9922L200.004 53.7812C200.004 52.9609 200.086 52.207 200.25 51.5195C200.414 50.8242 200.652 50.2188 200.965 49.7031C201.285 49.1875 201.676 48.7891 202.137 48.5078C202.598 48.2266 203.125 48.0859 203.719 48.0859C203.906 48.0859 204.098 48.1016 204.293 48.1328C204.488 48.1562 204.648 48.1914 204.773 48.2383ZM212.812 58.1406V52.4922C212.812 52.0859 212.746 51.7383 212.613 51.4492C212.48 51.1523 212.273 50.9219 211.992 50.7578C211.719 50.5938 211.363 50.5117 210.926 50.5117C210.551 50.5117 210.227 50.5781 209.953 50.7109C209.68 50.8359 209.469 51.0195 209.32 51.2617C209.172 51.4961 209.098 51.7734 209.098 52.0938H205.723C205.723 51.5547 205.848 51.043 206.098 50.5586C206.348 50.0742 206.711 49.6484 207.188 49.2812C207.664 48.9062 208.23 48.6133 208.887 48.4023C209.551 48.1914 210.293 48.0859 211.113 48.0859C212.098 48.0859 212.973 48.25 213.738 48.5781C214.504 48.9062 215.105 49.3984 215.543 50.0547C215.988 50.7109 216.211 51.5312 216.211 52.5156V57.9414C216.211 58.6367 216.254 59.207 216.34 59.6523C216.426 60.0898 216.551 60.4727 216.715 60.8008V61H213.305C213.141 60.6562 213.016 60.2266 212.93 59.7109C212.852 59.1875 212.812 58.6641 212.812 58.1406ZM213.258 53.2773L213.281 55.1875H211.395C210.949 55.1875 210.562 55.2383 210.234 55.3398C209.906 55.4414 209.637 55.5859 209.426 55.7734C209.215 55.9531 209.059 56.1641 208.957 56.4062C208.863 56.6484 208.816 56.9141 208.816 57.2031C208.816 57.4922 208.883 57.7539 209.016 57.9883C209.148 58.2148 209.34 58.3945 209.59 58.5273C209.84 58.6523 210.133 58.7148 210.469 58.7148C210.977 58.7148 211.418 58.6133 211.793 58.4102C212.168 58.207 212.457 57.957 212.66 57.6602C212.871 57.3633 212.98 57.082 212.988 56.8164L213.879 58.2461C213.754 58.5664 213.582 58.8984 213.363 59.2422C213.152 59.5859 212.883 59.9102 212.555 60.2148C212.227 60.5117 211.832 60.7578 211.371 60.9531C210.91 61.1406 210.363 61.2344 209.73 61.2344C208.926 61.2344 208.195 61.0742 207.539 60.7539C206.891 60.4258 206.375 59.9766 205.992 59.4062C205.617 58.8281 205.43 58.1719 205.43 57.4375C205.43 56.7734 205.555 56.1836 205.805 55.668C206.055 55.1523 206.422 54.7188 206.906 54.3672C207.398 54.0078 208.012 53.7383 208.746 53.5586C209.48 53.3711 210.332 53.2773 211.301 53.2773H213.258ZM224.051 58.5977C224.465 58.5977 224.832 58.5195 225.152 58.3633C225.473 58.1992 225.723 57.9727 225.902 57.6836C226.09 57.3867 226.188 57.0391 226.195 56.6406H229.371C229.363 57.5312 229.125 58.3242 228.656 59.0195C228.188 59.707 227.559 60.25 226.77 60.6484C225.98 61.0391 225.098 61.2344 224.121 61.2344C223.137 61.2344 222.277 61.0703 221.543 60.7422C220.816 60.4141 220.211 59.9609 219.727 59.3828C219.242 58.7969 218.879 58.1172 218.637 57.3438C218.395 56.5625 218.273 55.7266 218.273 54.8359V54.4961C218.273 53.5977 218.395 52.7617 218.637 51.9883C218.879 51.207 219.242 50.5273 219.727 49.9492C220.211 49.3633 220.816 48.9062 221.543 48.5781C222.27 48.25 223.121 48.0859 224.098 48.0859C225.137 48.0859 226.047 48.2852 226.828 48.6836C227.617 49.082 228.234 49.6523 228.68 50.3945C229.133 51.1289 229.363 52 229.371 53.0078H226.195C226.188 52.5859 226.098 52.2031 225.926 51.8594C225.762 51.5156 225.52 51.2422 225.199 51.0391C224.887 50.8281 224.5 50.7227 224.039 50.7227C223.547 50.7227 223.145 50.8281 222.832 51.0391C222.52 51.2422 222.277 51.5234 222.105 51.8828C221.934 52.2344 221.812 52.6367 221.742 53.0898C221.68 53.5352 221.648 54.0039 221.648 54.4961V54.8359C221.648 55.3281 221.68 55.8008 221.742 56.2539C221.805 56.707 221.922 57.1094 222.094 57.4609C222.273 57.8125 222.52 58.0898 222.832 58.293C223.145 58.4961 223.551 58.5977 224.051 58.5977ZM234.703 42.9883V61H231.328V42.9883H234.703ZM242.695 48.3203L237.188 54.6016L234.234 57.5898L233.004 55.1523L235.348 52.1758L238.641 48.3203H242.695ZM239.191 61L235.441 55.1406L237.773 53.1016L243.082 61H239.191Z" fill="#888888"/>
<path d="M118.594 98.4219V104.75H101.086V98.4219H118.594ZM103.828 84.875V119H95.6016V84.875H103.828ZM124.125 84.875V119H115.922V84.875H124.125ZM127.992 106.578V106.086C127.992 104.227 128.258 102.516 128.789 100.953C129.32 99.375 130.102 98.0078 131.133 96.8516C132.164 95.6953 133.438 94.7969 134.953 94.1562C136.469 93.5 138.219 93.1719 140.203 93.1719C142.203 93.1719 143.961 93.5 145.477 94.1562C147.008 94.7969 148.289 95.6953 149.32 96.8516C150.352 98.0078 151.133 99.375 151.664 100.953C152.195 102.516 152.461 104.227 152.461 106.086V106.578C152.461 108.422 152.195 110.133 151.664 111.711C151.133 113.273 150.352 114.641 149.32 115.812C148.289 116.969 147.016 117.867 145.5 118.508C143.984 119.148 142.234 119.469 140.25 119.469C138.266 119.469 136.508 119.148 134.977 118.508C133.445 117.867 132.164 116.969 131.133 115.812C130.102 114.641 129.32 113.273 128.789 111.711C128.258 110.133 127.992 108.422 127.992 106.578ZM135.891 106.086V106.578C135.891 107.531 135.961 108.422 136.102 109.25C136.242 110.078 136.477 110.805 136.805 111.43C137.133 112.039 137.578 112.516 138.141 112.859C138.703 113.203 139.406 113.375 140.25 113.375C141.078 113.375 141.766 113.203 142.312 112.859C142.875 112.516 143.32 112.039 143.648 111.43C143.977 110.805 144.211 110.078 144.352 109.25C144.492 108.422 144.562 107.531 144.562 106.578V106.086C144.562 105.164 144.492 104.297 144.352 103.484C144.211 102.656 143.977 101.93 143.648 101.305C143.32 100.664 142.875 100.164 142.312 99.8047C141.75 99.4453 141.047 99.2656 140.203 99.2656C139.375 99.2656 138.68 99.4453 138.117 99.8047C137.57 100.164 137.133 100.664 136.805 101.305C136.477 101.93 136.242 102.656 136.102 103.484C135.961 104.297 135.891 105.164 135.891 106.086ZM163.688 111.453L168.375 93.6406H173.32L171.562 102.57L166.922 119H162.961L163.688 111.453ZM161.836 93.6406L164.742 111.312L165.07 119H160.266L154.266 93.6406H161.836ZM177.492 110.938L180.422 93.6406H187.992L182.039 119H177.234L177.492 110.938ZM173.883 93.6406L178.617 111.406L179.344 119H175.336L170.789 102.617L169.102 93.6406H173.883ZM218.297 84.875V119H210.07V84.875H218.297ZM228.562 84.875V91.2266H200.039V84.875H228.562ZM225.773 106.578V106.086C225.773 104.227 226.039 102.516 226.57 100.953C227.102 99.375 227.883 98.0078 228.914 96.8516C229.945 95.6953 231.219 94.7969 232.734 94.1562C234.25 93.5 236 93.1719 237.984 93.1719C239.984 93.1719 241.742 93.5 243.258 94.1562C244.789 94.7969 246.07 95.6953 247.102 96.8516C248.133 98.0078 248.914 99.375 249.445 100.953C249.977 102.516 250.242 104.227 250.242 106.086V106.578C250.242 108.422 249.977 110.133 249.445 111.711C248.914 113.273 248.133 114.641 247.102 115.812C246.07 116.969 244.797 117.867 243.281 118.508C241.766 119.148 240.016 119.469 238.031 119.469C236.047 119.469 234.289 119.148 232.758 118.508C231.227 117.867 229.945 116.969 228.914 115.812C227.883 114.641 227.102 113.273 226.57 111.711C226.039 110.133 225.773 108.422 225.773 106.578ZM233.672 106.086V106.578C233.672 107.531 233.742 108.422 233.883 109.25C234.023 110.078 234.258 110.805 234.586 111.43C234.914 112.039 235.359 112.516 235.922 112.859C236.484 113.203 237.188 113.375 238.031 113.375C238.859 113.375 239.547 113.203 240.094 112.859C240.656 112.516 241.102 112.039 241.43 111.43C241.758 110.805 241.992 110.078 242.133 109.25C242.273 108.422 242.344 107.531 242.344 106.578V106.086C242.344 105.164 242.273 104.297 242.133 103.484C241.992 102.656 241.758 101.93 241.43 101.305C241.102 100.664 240.656 100.164 240.094 99.8047C239.531 99.4453 238.828 99.2656 237.984 99.2656C237.156 99.2656 236.461 99.4453 235.898 99.8047C235.352 100.164 234.914 100.664 234.586 101.305C234.258 101.93 234.023 102.656 233.883 103.484C233.742 104.297 233.672 105.164 233.672 106.086ZM266.086 84.875H279.516C282.141 84.875 284.422 85.2656 286.359 86.0469C288.297 86.8281 289.789 87.9844 290.836 89.5156C291.898 91.0469 292.43 92.9375 292.43 95.1875C292.43 97.1406 292.125 98.7734 291.516 100.086C290.906 101.398 290.055 102.484 288.961 103.344C287.883 104.188 286.625 104.883 285.188 105.43L282.492 106.953H271.219L271.172 100.602H279.516C280.562 100.602 281.43 100.414 282.117 100.039C282.805 99.6641 283.32 99.1328 283.664 98.4453C284.023 97.7422 284.203 96.9062 284.203 95.9375C284.203 94.9531 284.023 94.1094 283.664 93.4062C283.305 92.7031 282.773 92.1641 282.07 91.7891C281.383 91.4141 280.531 91.2266 279.516 91.2266H274.312V119H266.086V84.875ZM284.766 119L277.219 103.906L285.938 103.859L293.578 118.648V119H284.766ZM311.836 112.836V93.6406H319.758V119H312.352L311.836 112.836ZM312.586 107.68L314.648 107.633C314.648 109.336 314.445 110.914 314.039 112.367C313.633 113.805 313.031 115.055 312.234 116.117C311.453 117.18 310.484 118.008 309.328 118.602C308.188 119.18 306.867 119.469 305.367 119.469C304.117 119.469 302.969 119.297 301.922 118.953C300.891 118.594 300 118.039 299.25 117.289C298.5 116.523 297.914 115.547 297.492 114.359C297.086 113.156 296.883 111.719 296.883 110.047V93.6406H304.781V110.094C304.781 110.656 304.852 111.141 304.992 111.547C305.133 111.953 305.336 112.297 305.602 112.578C305.867 112.844 306.195 113.047 306.586 113.188C306.992 113.312 307.453 113.375 307.969 113.375C309.156 113.375 310.086 113.125 310.758 112.625C311.43 112.125 311.898 111.445 312.164 110.586C312.445 109.727 312.586 108.758 312.586 107.68ZM331.875 99.0547V119H323.977V93.6406H331.383L331.875 99.0547ZM330.938 105.453L329.086 105.5C329.086 103.562 329.32 101.836 329.789 100.32C330.258 98.7891 330.922 97.4922 331.781 96.4297C332.641 95.3672 333.664 94.5625 334.852 94.0156C336.055 93.4531 337.391 93.1719 338.859 93.1719C340.031 93.1719 341.102 93.3438 342.07 93.6875C343.055 94.0312 343.898 94.5859 344.602 95.3516C345.32 96.1172 345.867 97.1328 346.242 98.3984C346.633 99.6484 346.828 101.195 346.828 103.039V119H338.883V103.016C338.883 102 338.742 101.227 338.461 100.695C338.18 100.148 337.773 99.7734 337.242 99.5703C336.711 99.3672 336.062 99.2656 335.297 99.2656C334.484 99.2656 333.797 99.4219 333.234 99.7344C332.672 100.047 332.219 100.484 331.875 101.047C331.547 101.594 331.305 102.242 331.148 102.992C331.008 103.742 330.938 104.562 330.938 105.453ZM363.773 108.195H357.047C357.047 106.82 357.141 105.609 357.328 104.562C357.531 103.5 357.875 102.547 358.359 101.703C358.844 100.859 359.5 100.078 360.328 99.3594C361.062 98.75 361.695 98.1641 362.227 97.6016C362.758 97.0391 363.164 96.4688 363.445 95.8906C363.727 95.3125 363.867 94.6953 363.867 94.0391C363.867 93.2266 363.75 92.5625 363.516 92.0469C363.297 91.5312 362.961 91.1484 362.508 90.8984C362.07 90.6328 361.516 90.5 360.844 90.5C360.297 90.5 359.781 90.6328 359.297 90.8984C358.828 91.1641 358.445 91.5781 358.148 92.1406C357.852 92.6875 357.688 93.4141 357.656 94.3203H349.711C349.758 91.9922 350.273 90.1016 351.258 88.6484C352.258 87.1797 353.586 86.1094 355.242 85.4375C356.914 84.75 358.781 84.4062 360.844 84.4062C363.125 84.4062 365.086 84.7578 366.727 85.4609C368.367 86.1641 369.625 87.2109 370.5 88.6016C371.375 89.9766 371.812 91.6719 371.812 93.6875C371.812 95.0312 371.555 96.2031 371.039 97.2031C370.539 98.1875 369.859 99.1094 369 99.9688C368.156 100.812 367.211 101.719 366.164 102.688C365.258 103.484 364.641 104.297 364.312 105.125C363.984 105.938 363.805 106.961 363.773 108.195ZM356.086 115.32C356.086 114.195 356.492 113.258 357.305 112.508C358.117 111.742 359.172 111.359 360.469 111.359C361.766 111.359 362.82 111.742 363.633 112.508C364.445 113.258 364.852 114.195 364.852 115.32C364.852 116.445 364.445 117.391 363.633 118.156C362.82 118.906 361.766 119.281 360.469 119.281C359.172 119.281 358.117 118.906 357.305 118.156C356.492 117.391 356.086 116.445 356.086 115.32Z" fill="black"/>
<path d="M1134 0H1348C1356.28 0 1363 6.71573 1363 15V148C1363 156.284 1356.28 163 1348 163H1134V0Z" fill="#20B2AA"/>
<path d="M1260.62 78.8847C1263.81 78.8847 1266.93 79.805 1269.59 81.5293C1272.25 83.2536 1274.32 85.7044 1275.54 88.5718C1276.76 91.4391 1277.08 94.5943 1276.46 97.6383C1275.84 100.682 1274.3 103.478 1272.04 105.673C1269.78 107.868 1266.9 109.362 1263.77 109.968C1260.63 110.573 1257.39 110.262 1254.43 109.075C1251.48 107.887 1248.96 105.876 1247.18 103.295C1245.41 100.714 1244.46 97.6806 1244.46 94.5769C1244.46 90.4151 1246.16 86.4237 1249.19 83.4808C1252.22 80.538 1256.33 78.8847 1260.62 78.8847ZM1260.62 73.6539C1256.36 73.6539 1252.19 74.881 1248.65 77.1801C1245.11 79.4791 1242.35 82.7469 1240.72 86.57C1239.09 90.3932 1238.66 94.6001 1239.49 98.6588C1240.32 102.717 1242.37 106.446 1245.39 109.372C1248.4 112.298 1252.24 114.291 1256.41 115.098C1260.59 115.905 1264.92 115.491 1268.86 113.907C1272.79 112.324 1276.16 109.642 1278.52 106.201C1280.89 102.76 1282.15 98.7151 1282.15 94.5769C1282.15 89.0278 1279.88 83.706 1275.85 79.7821C1271.81 75.8583 1266.33 73.6539 1260.62 73.6539Z" fill="white"/>
<path d="M1274.08 47.5H1220.23C1218.8 47.5 1217.43 48.0511 1216.42 49.0321C1215.41 50.013 1214.85 51.3435 1214.85 52.7307V105.038C1214.85 106.426 1215.41 107.756 1216.42 108.737C1217.43 109.718 1218.8 110.269 1220.23 110.269H1231V105.038H1220.23V68.423H1279.46V52.7307C1279.46 51.3435 1278.89 50.013 1277.88 49.0321C1276.87 48.0511 1275.5 47.5 1274.08 47.5ZM1220.23 63.1922V52.7307H1274.08V63.1922H1220.23Z" fill="white"/>
<path d="M1255.23 86.731V102.423L1268.69 94.5771L1255.23 86.731Z" fill="white"/>
</svg>
